<svg width="20" height="20" viewBox="0 0 20 20" fill="none" xmlns="http://www.w3.org/2000/svg">
<path d="M10 20C7.32891 20 4.81766 18.9598 2.92891 17.0711C1.04016 15.1823 0 12.6711 0 10C0 7.32891 1.0402 4.8177 2.92891 2.92891C4.81762 1.04012 7.32891 0 10 0C12.6711 0 15.1823 1.04016 17.0711 2.92891C18.9598 4.81766 20 7.32891 20 10C20 12.6711 18.9598 15.1823 17.0711 17.0711C15.1824 18.9599 12.6711 20 10 20ZM10 1.25C5.17523 1.25 1.25 5.17523 1.25 10C1.25 14.8248 5.17523 18.75 10 18.75C14.8248 18.75 18.75 14.8248 18.75 10C18.75 5.17523 14.8248 1.25 10 1.25Z" fill="#838B95"/>
<path d="M12.2759 10C12.796 9.54152 13.125 8.87113 13.125 8.125C13.125 7.07797 12.4777 6.17977 11.5625 5.80809V5C11.5625 4.65484 11.2827 4.375 10.9375 4.375C10.5923 4.375 10.3125 4.65484 10.3125 5V5.625H9.0625V5C9.0625 4.65484 8.7827 4.375 8.4375 4.375C8.0923 4.375 7.8125 4.65484 7.8125 5V5.625H6.5625C6.2173 5.625 5.9375 5.90484 5.9375 6.25C5.9375 6.59516 6.2173 6.875 6.5625 6.875H7.1875V10V13.125H6.5625C6.2173 13.125 5.9375 13.4048 5.9375 13.75C5.9375 14.0952 6.2173 14.375 6.5625 14.375H7.8125V15C7.8125 15.3452 8.0923 15.625 8.4375 15.625C8.7827 15.625 9.0625 15.3452 9.0625 15V14.375H10.3125V15C10.3125 15.3452 10.5923 15.625 10.9375 15.625C11.2827 15.625 11.5625 15.3452 11.5625 15V14.1919C12.4777 13.8202 13.125 12.922 13.125 11.875C13.125 11.1289 12.796 10.4585 12.2759 10ZM8.4375 6.875H10.625C11.3143 6.875 11.875 7.43574 11.875 8.125C11.875 8.81426 11.3143 9.375 10.625 9.375H8.4375V6.875ZM10.625 13.125H8.4375V10.625H10.625C11.3143 10.625 11.875 11.1857 11.875 11.875C11.875 12.5643 11.3143 13.125 10.625 13.125Z" fill="#838B95"/>
</svg>
