<svg width="20" height="18" viewBox="0 0 20 18" fill="none" xmlns="http://www.w3.org/2000/svg">
<path d="M19.6872 3.42848C19.4189 3.09653 19.0202 2.90618 18.5933 2.90618H3.34908L3.21295 1.93056C3.11655 1.2397 2.5178 0.718689 1.82019 0.718689H0.624997C0.279842 0.718689 0 0.998531 0 1.34369C0 1.68884 0.279842 1.96868 0.624997 1.96868H1.82019C1.89769 1.96868 1.96425 2.02657 1.97491 2.10333L3.66197 14.1942C3.75838 14.8851 4.35712 15.4061 5.05474 15.4061H5.73243C5.66306 15.6017 5.62493 15.812 5.62493 16.0311C5.62493 17.065 6.46606 17.9061 7.49992 17.9061C8.53378 17.9061 9.37491 17.065 9.37491 16.0311C9.37491 15.812 9.33679 15.6017 9.26741 15.4061H12.6074C12.538 15.6017 12.4999 15.812 12.4999 16.0311C12.4999 17.065 13.341 17.9061 14.3749 17.9061C15.4087 17.9061 16.2499 17.065 16.2499 16.0311C16.2499 15.812 16.2117 15.6017 16.1424 15.4061H17.4999C17.8451 15.4061 18.1249 15.1263 18.1249 14.7811C18.1249 14.436 17.8451 14.1561 17.4999 14.1561H5.05478C4.97728 14.1561 4.91072 14.0982 4.90005 14.0215L4.74443 12.9061H17.053C17.7115 12.9061 18.2899 12.4387 18.4282 11.7945L19.9684 4.60714C20.0579 4.18992 19.9554 3.76031 19.6872 3.42848ZM8.12496 16.0311C8.12496 16.3757 7.84457 16.6561 7.49996 16.6561C7.15535 16.6561 6.87496 16.3757 6.87496 16.0311C6.87496 15.6865 7.15535 15.4061 7.49996 15.4061C7.84457 15.4061 8.12496 15.6865 8.12496 16.0311ZM14.9999 16.0311C14.9999 16.3757 14.7195 16.6561 14.3749 16.6561C14.0303 16.6561 13.7499 16.3757 13.7499 16.0311C13.7499 15.6865 14.0303 15.4061 14.3749 15.4061C14.7195 15.4061 14.9999 15.6865 14.9999 16.0311ZM18.7462 4.34511L17.206 11.5323C17.1906 11.604 17.1263 11.6561 17.053 11.6561H4.56997L3.5235 4.15613H18.5933C18.6551 4.15613 18.6936 4.18769 18.715 4.21418C18.7364 4.24062 18.7591 4.2848 18.7462 4.34511Z" fill="#959CAE"/>
</svg>
