<svg width="20" height="20" viewBox="0 0 20 20" fill="none" xmlns="http://www.w3.org/2000/svg">
<path d="M10 20C7.32891 20 4.81766 18.9598 2.92891 17.0711C1.04016 15.1823 0 12.6711 0 10C0 7.32891 1.0402 4.8177 2.92891 2.92891C4.81762 1.04012 7.32891 0 10 0C12.6711 0 15.1823 1.04016 17.0711 2.92891C18.9598 4.81766 20 7.32891 20 10C20 12.6711 18.9598 15.1823 17.0711 17.0711C15.1824 18.9599 12.6711 20 10 20ZM10 1.25C5.17523 1.25 1.25 5.17523 1.25 10C1.25 14.8248 5.17523 18.75 10 18.75C14.8248 18.75 18.75 14.8248 18.75 10C18.75 5.17523 14.8248 1.25 10 1.25Z" fill="#838B95"/>
<path d="M12.5 14.0625H11.25C9.81473 14.0625 8.5509 13.3143 7.82805 12.1875H10.625C10.9702 12.1875 11.25 11.9077 11.25 11.5625C11.25 11.2173 10.9702 10.9375 10.625 10.9375H7.29688C7.22547 10.6364 7.1875 10.3226 7.1875 10C7.1875 9.67742 7.22551 9.36355 7.29688 9.0625H10.625C10.9702 9.0625 11.25 8.78266 11.25 8.4375C11.25 8.09234 10.9702 7.8125 10.625 7.8125H7.82805C8.5509 6.68566 9.81473 5.9375 11.25 5.9375H12.1875C12.5327 5.9375 12.8125 5.65766 12.8125 5.3125C12.8125 4.96734 12.5327 4.6875 12.1875 4.6875H11.25C9.10004 4.6875 7.24434 5.97129 6.40902 7.8125H5.625C5.2798 7.8125 5 8.09234 5 8.4375C5 8.78266 5.2798 9.0625 5.625 9.0625H6.02035C5.96594 9.36691 5.9375 9.6802 5.9375 10C5.9375 10.3198 5.96594 10.6331 6.02035 10.9375H5.625C5.2798 10.9375 5 11.2173 5 11.5625C5 11.9077 5.2798 12.1875 5.625 12.1875H6.40902C7.2443 14.0287 9.10004 15.3125 11.25 15.3125H12.5C12.8452 15.3125 13.125 15.0327 13.125 14.6875C13.125 14.3423 12.8452 14.0625 12.5 14.0625Z" fill="#838B95"/>
</svg>
