<svg width="20" height="20" viewBox="0 0 20 20" fill="none" xmlns="http://www.w3.org/2000/svg">
<path d="M10 20C7.32891 20 4.8177 18.9598 2.92891 17.0711C1.04012 15.1823 0 12.6711 0 10C0 7.32891 1.04016 4.8177 2.92891 2.92891C4.81766 1.04012 7.32891 0 10 0C12.6711 0 15.1823 1.04016 17.0711 2.92891C18.9599 4.81766 20 7.32891 20 10C20 12.6711 18.9598 15.1823 17.0711 17.0711C15.1823 18.9599 12.6711 20 10 20ZM10 1.25C5.17523 1.25 1.25 5.17523 1.25 10C1.25 14.8248 5.17523 18.75 10 18.75C14.8248 18.75 18.75 14.8248 18.75 10C18.75 5.17523 14.8248 1.25 10 1.25Z" fill="#838B95"/>
<path d="M12.1875 7.8125C12.5327 7.8125 12.8125 7.53266 12.8125 7.1875V6.875C12.8125 5.32418 11.5508 4.0625 10 4.0625C8.44919 4.0625 7.18751 5.32418 7.18751 6.875V8.75H6.25C5.90485 8.75 5.625 9.02984 5.625 9.375C5.625 9.72016 5.90485 10 6.25 10H7.18751V10.3111C7.18751 10.7496 7.01672 11.1619 6.70668 11.472L5.18309 12.9955C5.00434 13.1743 4.95086 13.4431 5.04758 13.6767C5.1443 13.9102 5.37223 14.0625 5.625 14.0625H7.52641C8.00919 14.0625 8.48321 14.1938 8.8972 14.4422C9.5054 14.8071 10.2018 15 10.9111 15H12.1875C12.5327 15 12.8125 14.7202 12.8125 14.375C12.8125 14.0298 12.5327 13.75 12.1875 13.75H10.9111C10.4283 13.75 9.95431 13.6187 9.54032 13.3703C8.93212 13.0054 8.23571 12.8125 7.52641 12.8125H7.13387L7.59051 12.3558C8.13673 11.8097 8.43751 11.0835 8.43751 10.3111V10H9.37501C9.72017 10 10 9.72016 10 9.375C10 9.02984 9.72017 8.75 9.37501 8.75H8.43751V6.875C8.43751 6.01344 9.13845 5.3125 10 5.3125C10.8616 5.3125 11.5625 6.01344 11.5625 6.875V7.1875C11.5625 7.53266 11.8424 7.8125 12.1875 7.8125Z" fill="#838B95"/>
</svg>
