<svg width="17" height="16" viewBox="0 0 17 16" fill="none" xmlns="http://www.w3.org/2000/svg">
<path d="M16.6865 5.69565C16.4922 5.49042 16.2267 5.35693 15.9374 5.31903L11.4194 4.73106L9.63149 0.710193C9.37042 0.12165 8.65186 -0.156266 8.02657 0.0894424C7.72847 0.206589 7.49145 0.429631 7.36702 0.710193L5.57912 4.73106L1.06107 5.31846C0.387937 5.40665 -0.0817956 5.99178 0.011902 6.62532C0.0521699 6.89758 0.193997 7.14747 0.412055 7.33034L3.81608 10.1873L3.11666 14.6704C3.04089 15.1256 3.26304 15.5791 3.68005 15.8206C4.0912 16.068 4.62005 16.0588 5.02113 15.7971L8.49922 13.571L11.9773 15.7994C12.5385 16.1579 13.3023 16.0203 13.6833 15.4921C13.8563 15.2521 13.9272 14.9596 13.8818 14.6726L13.1824 10.1878L16.5865 7.33087C17.0939 6.90534 17.1387 6.17321 16.6865 5.69565ZM12.1297 9.54215C11.9774 9.67021 11.9037 9.86172 11.9336 10.0518L12.6621 14.8515L8.84224 12.4071C8.63631 12.2754 8.36579 12.2754 8.15986 12.4071L4.31751 14.8367L5.06485 10.0496C5.09388 9.86021 5.02024 9.66974 4.86874 9.54219L1.22613 6.45209L6.0878 5.8207C6.30067 5.79308 6.48212 5.6616 6.56497 5.47502L8.50647 1.14275C8.50868 1.1453 8.51032 1.14821 8.51135 1.15132L10.4328 5.47274C10.5157 5.65932 10.6972 5.7908 10.91 5.81842L15.7777 6.47781L12.1297 9.54215Z" fill="#818796"/>
</svg>
