<svg width="20" height="20" viewBox="0 0 20 20" fill="none" xmlns="http://www.w3.org/2000/svg">
<path d="M9.77 15.13C8.756 15.13 7.976 14.9263 7.43 14.519C6.884 14.1117 6.611 13.4963 6.611 12.673C6.611 12.3437 6.65867 12.0447 6.754 11.776H6.143V10.944H7.235C7.40833 10.7707 7.638 10.6147 7.924 10.476C8.21867 10.3287 8.522 10.1987 8.834 10.086C9.15467 9.97333 9.43633 9.878 9.679 9.8C9.92167 9.71333 10.0777 9.65267 10.147 9.618H6.143V8.786H11.109C11.1783 8.66467 11.226 8.539 11.252 8.409C11.2867 8.279 11.304 8.11433 11.304 7.915C11.304 7.50767 11.1653 7.19133 10.888 6.966C10.6107 6.732 10.1773 6.615 9.588 6.615C9.16333 6.615 8.76033 6.67133 8.379 6.784C8.00633 6.89667 7.67267 7.02233 7.378 7.161L7.053 6.134C7.38233 5.978 7.78533 5.848 8.262 5.744C8.73867 5.64 9.20233 5.588 9.653 5.588C10.5283 5.588 11.2173 5.77 11.72 6.134C12.2313 6.48933 12.487 7.03533 12.487 7.772C12.487 7.954 12.474 8.136 12.448 8.318C12.422 8.49133 12.3743 8.64733 12.305 8.786H13.02V9.618H11.889C11.7503 9.75667 11.5337 9.89967 11.239 10.047C10.9443 10.1857 10.6367 10.3157 10.316 10.437C9.99533 10.5583 9.705 10.6623 9.445 10.749C9.185 10.8357 9.016 10.9007 8.938 10.944H13.02V11.776H7.963C7.89367 11.906 7.846 12.0273 7.82 12.14C7.794 12.2527 7.781 12.4087 7.781 12.608C7.781 13.6133 8.47867 14.116 9.874 14.116C10.368 14.116 10.8447 14.0553 11.304 13.934C11.772 13.804 12.162 13.6697 12.474 13.531V14.584C12.1793 14.7227 11.785 14.8483 11.291 14.961C10.797 15.0737 10.29 15.13 9.77 15.13Z" fill="#005BE4"/>
<circle cx="10" cy="10" r="9.25" stroke="#005BE4" stroke-width="1.5"/>
</svg>
