<svg width="14" height="16" viewBox="0 0 14 16" fill="none" xmlns="http://www.w3.org/2000/svg">
<path d="M6.88597 7.70724C7.94481 7.70724 8.86167 7.32749 9.61081 6.57822C10.36 5.82908 10.7397 4.91246 10.7397 3.8535C10.7397 2.79491 10.36 1.87817 9.61069 1.12878C8.86143 0.379759 7.94468 0 6.88597 0C5.82702 0 4.91039 0.379759 4.16125 1.1289C3.41211 1.87804 3.03223 2.79479 3.03223 3.8535C3.03223 4.91246 3.41211 5.8292 4.16137 6.57834C4.91064 7.32736 5.82738 7.70724 6.88597 7.70724Z" fill="white" fill-opacity="0.6"/>
<path d="M13.629 12.3032C13.6074 11.9914 13.5637 11.6514 13.4993 11.2922C13.4344 10.9304 13.3508 10.5884 13.2507 10.2757C13.1473 9.95263 13.0067 9.63354 12.8328 9.32775C12.6524 9.01037 12.4405 8.734 12.2027 8.50659C11.9541 8.26867 11.6496 8.07739 11.2976 7.93787C10.9467 7.79907 10.5579 7.72876 10.1421 7.72876C9.97872 7.72876 9.82076 7.79578 9.51571 7.99438C9.32797 8.11682 9.10836 8.25842 8.86325 8.41504C8.65365 8.54858 8.36972 8.6737 8.01901 8.78698C7.67685 8.8977 7.32944 8.95385 6.98655 8.95385C6.64365 8.95385 6.29636 8.8977 5.95384 8.78698C5.60349 8.67382 5.31956 8.5487 5.11021 8.41516C4.86741 8.26001 4.64769 8.11841 4.45714 7.99426C4.15245 7.79565 3.99437 7.72864 3.83104 7.72864C3.41503 7.72864 3.02636 7.79907 2.67565 7.93799C2.32384 8.07727 2.01928 8.26855 1.77038 8.50671C1.53271 8.73425 1.32067 9.01049 1.1405 9.32775C0.966794 9.63354 0.82617 9.95251 0.722655 10.2759C0.622679 10.5885 0.539062 10.9304 0.47412 11.2922C0.40979 11.6509 0.366089 11.9911 0.344482 12.3036C0.323242 12.6097 0.3125 12.9275 0.3125 13.2484C0.3125 14.0836 0.578002 14.7597 1.10156 15.2584C1.61865 15.7505 2.30285 16.0001 3.13488 16.0001H10.8389C11.671 16.0001 12.3549 15.7506 12.8721 15.2584C13.3958 14.7601 13.6613 14.0838 13.6613 13.2483C13.6612 12.9259 13.6503 12.6079 13.629 12.3032Z" fill="white" fill-opacity="0.6"/>
</svg>
