<svg width="16" height="16" viewBox="0 0 16 16" fill="none" xmlns="http://www.w3.org/2000/svg">
<path d="M0.378906 6.50122L1.87759 14.6068C2.01977 15.4068 2.71154 15.9921 3.52403 15.9999H12.4739C13.2864 15.9921 13.9782 15.4068 14.1203 14.6068L15.619 6.50122H0.378906ZM5.25491 10.1319C5.25491 10.365 5.06591 10.554 4.83275 10.554C4.59958 10.554 4.41058 10.365 4.41058 10.1319V8.86537C4.41058 8.63221 4.59958 8.4432 4.83275 8.4432C5.06591 8.4432 5.25491 8.63221 5.25491 8.86537V10.1319ZM11.5874 10.1319C11.5874 10.365 11.3984 10.554 11.1652 10.554C10.9321 10.554 10.7431 10.365 10.7431 10.1319V8.86537C10.7431 8.63221 10.9321 8.4432 11.1652 8.4432C11.3984 8.4432 11.5874 8.63221 11.5874 8.86537V10.1319Z" fill="white" fill-opacity="0.6"/>
<path d="M5.25498 3.58838C5.25498 2.07289 6.48354 0.84433 7.99903 0.84433C9.51453 0.84433 10.7431 2.07289 10.7431 3.58838V6.07915H11.5874V3.58838C11.5875 1.60656 9.98086 0 7.99903 0C6.01721 0 4.41064 1.60656 4.41064 3.58838V6.07915H5.25498V3.58838Z" fill="white" fill-opacity="0.6"/>
</svg>
