<svg width="17" height="17" viewBox="0 0 17 17" fill="none" xmlns="http://www.w3.org/2000/svg">
<path d="M14.5104 2.48957C12.905 0.884133 10.7704 0 8.5 0C6.22957 0 4.09501 0.884133 2.48957 2.48957C0.884133 4.09501 0 6.22957 0 8.5C0 10.7704 0.884166 12.905 2.48957 14.5104C4.09497 16.1159 6.22957 17 8.5 17C10.7704 17 12.905 16.1159 14.5104 14.5104C16.1159 12.905 17 10.7704 17 8.5C17 6.22957 16.1158 4.09504 14.5104 2.48957ZM8.5 7.96875C9.8182 7.96875 10.8906 9.04118 10.8906 10.3594C10.8906 11.451 10.1549 12.3734 9.1535 12.6585C9.08155 12.6789 9.03125 12.7437 9.03125 12.8185V13.2662C9.03125 13.5523 8.81141 13.7985 8.52567 13.8119C8.22056 13.8262 7.96875 13.5832 7.96875 13.2812V12.8184C7.96875 12.7438 7.91875 12.679 7.84699 12.6586C6.84984 12.375 6.11605 11.4595 6.10941 10.3742C6.10765 10.0845 6.33542 9.83666 6.62502 9.82836C6.92554 9.81972 7.17188 10.0608 7.17188 10.3594C7.17188 11.1231 7.8199 11.7384 8.59493 11.6842C9.24916 11.6385 9.77912 11.1085 9.8248 10.4542C9.87893 9.67918 9.26371 9.03125 8.5 9.03125C7.1818 9.03125 6.10938 7.95882 6.10938 6.64062C6.10938 5.54901 6.84506 4.62656 7.8465 4.34154C7.91845 4.32105 7.96875 4.25634 7.96875 4.18154V3.73376C7.96875 3.44768 8.18859 3.20154 8.47433 3.1881C8.77944 3.17375 9.03125 3.41683 9.03125 3.71875V4.18163C9.03125 4.25624 9.08125 4.32099 9.15301 4.34141C10.1502 4.62496 10.884 5.54047 10.8906 6.62578C10.8924 6.91548 10.6646 7.16334 10.375 7.17164C10.0745 7.18028 9.82812 6.93922 9.82812 6.64062C9.82812 5.87689 9.1801 5.26163 8.40507 5.31582C7.75084 5.36154 7.22088 5.89153 7.1752 6.54576C7.12107 7.32082 7.73629 7.96875 8.5 7.96875Z" fill="#175FF2"/>
</svg>
