<svg width="14" height="14" viewBox="0 0 14 14" fill="none" xmlns="http://www.w3.org/2000/svg">
<path d="M7 0C3.14027 0 0 3.14027 0 7C0 10.8597 3.14027 14 7 14C10.8597 14 14 10.8597 14 7C14 3.14027 10.8597 0 7 0ZM8.16668 11.375C8.16668 11.5362 8.03622 11.6667 7.875 11.6667H6.125C5.96378 11.6667 5.83332 11.5362 5.83332 11.375V7H5.54165C5.38043 7 5.24997 6.86954 5.24997 6.70832V5.54165C5.24997 5.38043 5.38043 5.24997 5.54165 5.24997H7.875C8.03622 5.24997 8.16668 5.38043 8.16668 5.54165V11.375ZM7 4.66668C6.35657 4.66668 5.83332 4.14345 5.83332 3.5C5.83332 2.85655 6.35657 2.33332 7 2.33332C7.64343 2.33332 8.16668 2.85655 8.16668 3.5C8.16668 4.14345 7.64343 4.66668 7 4.66668Z" fill="#BABEC9"/>
</svg>
