<svg width="25" height="29" viewBox="0 0 25 29" fill="none" xmlns="http://www.w3.org/2000/svg">
<path d="M0.124507 6.93857C0.124507 7.10926 0.0415023 10.5184 0 12.2017C1.45258 7.15194 7.3874 6.76076 8.88148 6.76076H15.5218C21.1662 6.76076 22.5772 4.37814 23.2828 3.3113C23.8472 2.45782 24.265 0.750873 24.4033 0.00408189H9.58702C9.42101 0.00408189 5.68581 -0.173725 2.98816 1.81772C0.290516 3.80916 0.124507 6.7252 0.124507 6.93857Z" fill="url(#paint0_linear)"/>
<path d="M6.7394 8.8331C6.90415 8.8331 10.1944 8.76464 11.819 8.73041C6.94533 9.9285 6.5678 14.8236 6.5678 16.0559L6.5678 21.5329C6.5678 26.1884 4.26827 27.3522 3.23863 27.9342C2.41492 28.3997 0.767499 28.7443 0.046752 28.8584C0.0467522 24.8305 0.130271 16.7474 0.130271 16.6378C0.130271 16.5009 -0.124854 13.4201 1.79714 11.1951C3.71913 8.97003 6.53348 8.8331 6.7394 8.8331Z" fill="#005BE4"/>
<path d="M0.138283 14.9162C0.138283 15.0705 0.115841 18.1507 0.0837402 19.6716C1.20727 15.109 5.75591 14.7556 6.91154 14.7556H12.0477C16.4134 14.7556 17.5048 12.6028 18.0505 11.6389C18.4871 10.8678 18.8102 9.32552 18.9172 8.65078H7.45725C7.32885 8.65078 4.43978 8.49013 2.35323 10.2894C0.266686 12.0888 0.138283 14.7235 0.138283 14.9162Z" fill="url(#paint1_linear)"/>
<defs>
<linearGradient id="paint0_linear" x1="12.2017" y1="5.32151e-07" x2="2.1843" y2="14.0495" gradientUnits="userSpaceOnUse">
<stop stop-color="#005BE4"/>
<stop offset="1" stop-color="#5D9BF8"/>
</linearGradient>
<linearGradient id="paint1_linear" x1="9.4796" y1="8.64709" x2="0.0419808" y2="16.4143" gradientUnits="userSpaceOnUse">
<stop stop-color="#005BE4"/>
<stop offset="1" stop-color="#5D9BF8"/>
</linearGradient>
</defs>
</svg>
